<svg width="40" height="40" viewBox="0 0 40 40" fill="none" xmlns="http://www.w3.org/2000/svg">
<circle cx="20" cy="20" r="20" fill="#FBE2A8"/>
<path d="M10 14C11 13 13 13 15 14" stroke="#545256" stroke-width="2" stroke-linecap="round"/>
<path d="M25 14C27 13 29 13 30 14" stroke="#545256" stroke-width="2" stroke-linecap="round"/>
<circle cx="13" cy="20" r="2.5" fill="#545256"/>
<circle cx="27" cy="20" r="2.5" fill="#545256"/>
<path d="M16 28C18 26 22 26 24 28" stroke="#545256" stroke-width="2.5" stroke-linecap="round"/>
<path d="M10 32C10 32 12 28 15 28C18 28 18 32 18 32C18 32 18 36 15 36C12 36 10 32 10 32Z" fill="#FBE2A8" stroke="#545256" stroke-width="2"/>
</svg>
