<?xml version="1.0" encoding="utf-8"?>
<!-- Generator: Adobe Illustrator 23.0.1, SVG Export Plug-In . SVG Version: 6.00 Build 0)  -->
<svg version="1.1" id="레이어_1" xmlns="http://www.w3.org/2000/svg" xmlns:xlink="http://www.w3.org/1999/xlink" x="0px"
	 y="0px" viewBox="0 0 20 16" style="enable-background:new 0 0 20 16;" xml:space="preserve">
<path d="M10,2.3c0.7-0.9,1.5-1.6,2.5-1.9c2.8-1.1,6,0.8,6.4,3.8c0.4,2.7-0.5,5-2.2,7c-1.8,2.1-4,3.6-6.4,4.9C10.1,16,9.9,16,9.8,16
	c-2.8-1.6-5.4-3.4-7.3-6C1.3,8.3,0.8,6.4,1.1,4.3c0.3-2.2,1.6-3.6,3.6-4.1c2-0.6,3.6,0.2,4.9,1.6C9.7,1.9,9.8,2.1,10,2.3z"/>
</svg>
