<?xml version="1.0" encoding="utf-8"?>
<!-- Generator: Adobe Illustrator 23.0.1, SVG Export Plug-In . SVG Version: 6.00 Build 0)  -->
<svg version="1.1" id="레이어_1" xmlns="http://www.w3.org/2000/svg" xmlns:xlink="http://www.w3.org/1999/xlink" x="0px"
	 y="0px" viewBox="0 0 20 16" style="enable-background:new 0 0 20 16;" xml:space="preserve">
<g>
	<path d="M19,16c-6,0-11.8,0-18,0C1,11.1,1,6.4,1.1,1.6c0-0.6,1.1-1.5,1.6-1.5C8.1,0,13.4,0,19,0C19,5.4,19,10.6,19,16z M2.9,1.1
		c0,4.4,0,8.5,0,12.7c0,0.6,0.7,1.6,1.1,1.6c4.4,0.1,8.8,0.1,13.4,0.1c0-4.9,0-9.5,0-14.3C12.5,1.1,7.7,1.1,2.9,1.1z"/>
	<path d="M5.8,7.2c0.9,1.4,1.9,2.8,2.9,4.4c2.8-3.1,3.8-7.2,6.6-9.5c0.3,0.3,0.6,0.5,0.9,0.8c-2,3.2-3.9,6.5-6,9.7
		c-0.3,0.4-1.8,0.5-2.1,0.1c-1.2-1.3-2.2-2.9-3.3-4.4C5.1,7.9,5.4,7.5,5.8,7.2z"/>
</g>
</svg>
