<?xml version="1.0" encoding="utf-8"?>
<!-- Generator: Adobe Illustrator 23.0.1, SVG Export Plug-In . SVG Version: 6.00 Build 0)  -->
<svg version="1.1" id="레이어_1" xmlns="http://www.w3.org/2000/svg" xmlns:xlink="http://www.w3.org/1999/xlink" x="0px"
	 y="0px" viewBox="0 0 18 3" style="enable-background:new 0 0 18 3;" xml:space="preserve">
<style type="text/css">
	.st0{fill:#413E3F;}
</style>
<path class="st0" d="M16.5,1.1c-1.3-0.4-1.8-1-2.7-1.1c-0.5,0-1,0.3-1.5,0.5c-2,0.8-4,0.8-5.9,0.2C4.9,0.3,4.9-0.1,4.3,0
	c-1,0.1-1.4,0.7-2.7,1.1C0.9,1.3,0.3,1.4,0,1.4c0,0.5,0,1,0.1,1.6c0.7,0.1,1.3,0,1.7-0.1c1.2-0.4,1.5-1,2.5-1c0.4,0,0.4,0.1,1,0.4
	c0.1,0,0.2,0.1,0.3,0.1c0,0,0.1,0,0.1,0c0.7,0.2,1.3,0.3,2,0.4c1,0.1,2,0.1,3-0.1c1-0.2,1.9-0.8,2.9-0.8c1-0.1,1.3,0.6,2.5,1
	c0.4,0.1,1,0.2,1.7,0.1c0-0.5,0-1,0.1-1.6C17.7,1.4,17.1,1.3,16.5,1.1z"/>
<g>
	<path d="M-31.5,3.8c-2.3,1.1-1.5,2.4-0.9,3.9c1.6,3.9,0.9,7.5-1.9,10.5c-2.8,3-6.2,4.1-10.1,2.6c-3.9-1.4-6.3-4.3-6.5-8.5
		c-0.3-4.2,1.9-7.3,5.2-9.5c3.2-2.2,6.7-2,9.6,0.3c0.4,0.3,0.8,0.9,1.2,0.8C-33.7,3.9-33.3,3.5-31.5,3.8z M-41.7,10.2
		c1.3-1.2,2.5-2.4,3.9-3.6c0.8-0.7,1.6-1.1,1.8-1.5c0.1-0.1-0.2-0.3-0.3-0.4c-0.3-0.3-0.9-0.8-2.1-1.3c-3.1-1.4-6.6-0.4-9.1,2.4
		C-49.7,8.4-50,13-48,16c2,2.9,5.8,4.4,9.1,3.4c3.3-1,6-4.6,6-8c0-1.8-0.9-5.5-1.7-5.2c-1.3,0.5-2.5,1.9-3.5,2.9
		c-2.6,2.6-2.5,2.7,0.1,5.1c0.3,0.3,0.6,0.6,0.2,1.1c-0.6,0.2-1.1,0-1.5-0.4c-1.4-1.2-2.7-2.5-3.9,0.1c-0.1,0.3-0.6,0.5-0.9,0.2
		c-0.6-0.4-0.3-0.9,0-1.4c0.5-1,1.8-1.8,0.7-3.3c-0.5-0.6-1.8-1.7-0.8-2.4c1.2-0.8,1.5,1,2.2,1.6C-42,9.9-41.9,10.1-41.7,10.2z"/>
</g>
</svg>
