<?xml version="1.0" encoding="utf-8"?>
<!-- Generator: Adobe Illustrator 23.0.1, SVG Export Plug-In . SVG Version: 6.00 Build 0)  -->
<svg version="1.1" id="레이어_1" xmlns="http://www.w3.org/2000/svg" xmlns:xlink="http://www.w3.org/1999/xlink" x="0px"
	 y="0px" viewBox="0 0 20 16" style="enable-background:new 0 0 20 16;" xml:space="preserve">
<g>
	<path d="M18.9,4.1c-0.4-3-3.6-4.8-6.4-3.8c-1,0.4-1.8,1.1-2.5,1.9C9.8,2.1,9.7,1.9,9.6,1.8C8.3,0.4,6.7-0.4,4.7,0.2
		c-2.1,0.6-3.4,2-3.6,4.1c-0.3,2,0.2,3.9,1.4,5.6c1.9,2.6,4.5,4.5,7.3,6c0.1,0.1,0.3,0,0.5,0c2.4-1.3,4.6-2.8,6.4-4.9
		C18.5,9.1,19.3,6.8,18.9,4.1z M14.1,4.7c-0.7,1-1.3,2.1-1.9,3.2c-0.5,0.8-0.9,1.6-1.4,2.4C10.3,11,9.9,11.5,9,11.5
		c-0.3,0-0.5-0.1-0.7-0.2c-0.6-0.4-1.1-1-1.5-1.6C6.7,9.6,5.7,8.1,5.7,8c0,0,0.2-0.3,0.2-0.3c0.2-0.3,0.4-0.6,0.7-0.8L7,6.7
		c0,0,0.3,0.4,0.3,0.4c0.5,0.8,1,1.6,1.6,2.3C9.2,9,9.6,8.5,9.9,8c0.3-0.5,0.6-1.1,1-1.6c0.6-1.1,1.3-2.1,2.3-3
		c0.1,0.1,1.2,1,1.2,1.1C14.2,4.5,14.2,4.6,14.1,4.7z"/>
</g>
</svg>
