<?xml version="1.0" encoding="utf-8"?>
<!-- Generator: Adobe Illustrator 23.0.1, SVG Export Plug-In . SVG Version: 6.00 Build 0)  -->
<svg version="1.1" id="레이어_1" xmlns="http://www.w3.org/2000/svg" xmlns:xlink="http://www.w3.org/1999/xlink" x="0px"
	 y="0px" viewBox="0 0 20 18" style="enable-background:new 0 0 20 18;" xml:space="preserve">
<path d="M19,0h-5.4c-1.2,0-2.3,0.5-3.2,1.3c-0.2,0.2-0.3,0.3-0.4,0.5C9.9,1.7,9.7,1.5,9.6,1.3C8.7,0.5,7.6,0,6.4,0H1
	C0.5,0,0.1,0.4,0.1,0.9v13.5c0,0.5,0.4,0.9,0.9,0.9h6.3c0.5,0,0.9,0.2,1.3,0.5c0.3,0.3,0.5,0.8,0.5,1.3c0,0.5,0.4,0.9,0.9,0.9
	s0.9-0.4,0.9-0.9c0-0.5,0.2-0.9,0.5-1.3c0.3-0.3,0.8-0.5,1.3-0.5H19c0.5,0,0.9-0.4,0.9-0.9V0.9C19.9,0.4,19.5,0,19,0z M9.1,14
	c-0.5-0.3-1.2-0.5-1.8-0.5H1.9V1.8h4.5c0.7,0,1.4,0.3,1.9,0.8c0.5,0.5,0.8,1.2,0.8,1.9V14z M18.1,13.5h-5.4c-0.6,0-1.3,0.2-1.8,0.5
	V4.5c0-0.7,0.3-1.4,0.8-1.9c0.5-0.5,1.2-0.8,1.9-0.8h4.5V13.5z"/>
</svg>
